<?xml version="1.0" encoding="UTF-8"?>
<svg id="Layer_1" data-name="Layer 1" xmlns="http://www.w3.org/2000/svg" viewBox="0 0 283.46 283.46">
  <defs>
    <style>
      .cls-1 {
        fill: #fff;
      }

      .cls-2 {
        fill: #fbb040;
      }
    </style>
  </defs>
  <g>
    <path class="cls-2" d="M61.07,42.52c1.02.22,2.87,1.97,3.51,2.95l89.72,137.79c-.52,3.36-9.47,18.41-12.95,18.96L49.37,61.88c-3.21,5.34,15.31,30.18,14.53,32.66,0,0,0,40.73,0,40.73-7.7-5.4-16.24-10.33-22.42-17.51-2.17-29.45,11.32-74.15-34.05-69.6v-5.65h53.64Z"/>
    <path class="cls-2" d="M276.03,42.52v5.65c-45.31-4.71-35.26,39.21-36.46,69.6-2.77,4.38-18.1,14.46-22.42,17.51v-39.12c2.34-3.9,18.29-30.89,16.93-32.67l-69.37,106.47-1.67-.5-11.77-18.44,71.12-108.49h53.64Z"/>
    <path class="cls-2" d="M239.73,209.89c-.89,21.54,17.76,25.6,35.49,25.4v5.65s-92.78-.47-92.78-.47v-5.19c49.97,4.52,31.57-47.87,34.68-79.28l22.6-16.7v70.58Z"/>
    <path class="cls-2" d="M63.73,155.6c3.85,32.04-15.87,84.11,34.86,79.69l-.36,4.9-90.8.76v-5.65c9.35-.61,24.59-.98,30.21-9.71,7.45-21.18,2.93-61.85,3.67-85.46l22.41,15.48Z"/>
  </g>
  <g>
    <path class="cls-1" d="M28.4,64.3l-5.67,4.41c-15.4,19.55,5.86,44.05,20.61,56.87,11.92,10.36,26.26,17.74,38.66,27.48,22.86,17.95,41.47,41.71,52.86,68.52-1.67.36-1.88-.8-2.58-1.85-5.9-8.83-9.77-18.02-16.8-26.75-28.01-34.79-79.52-50.1-96.65-92.09-5.1-12.5-9.55-35.24,9.56-36.58Z"/>
    <path class="cls-1" d="M146.98,221.58c10.09-26.09,28.64-49.57,50.44-66.91,12.77-10.17,27.62-17.9,39.9-28.66,13.27-11.62,35.61-36.71,22.92-55.21l-7.61-6.5c20.8,1.66,13.75,27.08,7.95,39.81-18.14,39.77-69.33,56.34-97.01,91.73-6.31,8.07-10.79,17.35-16.59,25.75Z"/>
  </g>
</svg>